<svg width="33" height="33" viewBox="0 0 33 33" fill="none" xmlns="http://www.w3.org/2000/svg">
<path d="M23.375 4.12493C23.7361 3.76379 24.1649 3.47732 24.6367 3.28188C25.1086 3.08643 25.6143 2.98584 26.125 2.98584C26.6357 2.98584 27.1414 3.08643 27.6133 3.28188C28.0851 3.47732 28.5139 3.76379 28.875 4.12493C29.2361 4.48606 29.5226 4.91479 29.718 5.38664C29.9135 5.85848 30.0141 6.3642 30.0141 6.87493C30.0141 7.38565 29.9135 7.89137 29.718 8.36322C29.5226 8.83506 29.2361 9.26379 28.875 9.62493L10.3125 28.1874L2.75 30.2499L4.8125 22.6874L23.375 4.12493Z" stroke="#1C1C1C" stroke-width="2" stroke-linecap="round" stroke-linejoin="round"/>
</svg>
