<svg width="30" height="30" viewBox="0 0 30 30" fill="none" xmlns="http://www.w3.org/2000/svg">
<path d="M15 27.5C21.9036 27.5 27.5 21.9036 27.5 15C27.5 8.09644 21.9036 2.5 15 2.5C8.09644 2.5 2.5 8.09644 2.5 15C2.5 21.9036 8.09644 27.5 15 27.5Z" stroke="white" stroke-width="2" stroke-linecap="round" stroke-linejoin="round"/>
<path d="M11.3625 11.2502C11.6564 10.4148 12.2365 9.71036 13 9.26164C13.7635 8.81292 14.6612 8.6489 15.534 8.79861C16.4069 8.94833 17.1986 9.40213 17.7689 10.0796C18.3392 10.7571 18.6514 11.6146 18.65 12.5002C18.65 15.0002 14.9 16.2502 14.9 16.2502" stroke="white" stroke-width="2" stroke-linecap="round" stroke-linejoin="round"/>
<path d="M15 21.25H15.0125" stroke="white" stroke-width="2" stroke-linecap="round" stroke-linejoin="round"/>
</svg>
